<svg xmlns="http://www.w3.org/2000/svg" viewBox="0 0 284.16 69.36"><defs><style>.cls-1{fill:#00559d;}.cls-2{fill:#fcbb31;}</style></defs><title>rma_logoRisorsa 1</title><g id="Livello_2" data-name="Livello 2"><g id="Livello_1-2" data-name="Livello 1"><path class="cls-1" d="M0,48V68.7H56.3C40.54,57.67,22.42,50.78,0,48"/><path class="cls-1" d="M53.24,0a24.89,24.89,0,0,1,4.14,13.86C57.27,25,47.59,34.47,35.57,35.06A133.57,133.57,0,0,1,68.7,52.43V0Z"/><path class="cls-1" d="M49.74,13.34A17.42,17.42,0,0,0,43.3,0H0V27c25.21,2.26,49.74,4.37,49.74-13.69"/><path class="cls-1" d="M0,40.54c28.48,2.24,54.52,16.05,68.7,28.15v-7C36.62,36.2,0,34.61,0,34.61Z"/><path class="cls-2" d="M57.38,13.86A24.87,24.87,0,0,0,53.24,0H43.31a17.43,17.43,0,0,1,6.43,13.34C49.74,31.4,25.21,29.29,0,27v7.58s36.62,1.59,68.7,27V52.43A133.74,133.74,0,0,0,35.57,35.06c12-.58,21.7-10,21.81-21.2"/><path class="cls-1" d="M116.75,11.5a4.36,4.36,0,0,0-1.34-3.32,4.92,4.92,0,0,0-3.62-1.29H95.23v9.42h16.56A5.08,5.08,0,0,0,115.46,15a4.8,4.8,0,0,0,1.29-3.52m-.25,24.39L109.11,23.2H95.23V35.89H87.9V2.78a1.75,1.75,0,0,0-.35-1.24A2.69,2.69,0,0,0,86.21.85V0h26.37a10.91,10.91,0,0,1,8.28,3.28A11.6,11.6,0,0,1,124,11.75c0,5.7-2.28,9.32-6.89,10.81l7.69,13.33Z"/><path class="cls-1" d="M165.32,35.89H131.47V2.78a1.83,1.83,0,0,0-.35-1.24,2.73,2.73,0,0,0-1.34-.69V0h34.35V6.89H138.8v7.34h17.6v6.89H138.8V29h26.52Z"/><path class="cls-1" d="M188.81,6.5l-6.59,14.77h13.19ZM202,35.89l-3.42-7.73H179.2l-3.47,7.73h-7.39l14-31.38a4.33,4.33,0,0,0,.59-1.93c0-.84-.54-1.39-1.48-1.73V0h12l16,35.89Z"/><path class="cls-1" d="M244.13,35.89H213.59V2.78a1.8,1.8,0,0,0-.39-1.24,2.54,2.54,0,0,0-1.29-.69V0h9V29h23.2Z"/><path class="cls-1" d="M282.84,35.89H249V2.78a1.89,1.89,0,0,0-.34-1.24A2.73,2.73,0,0,0,247.3.85V0h34.35V6.89H256.32v7.34h17.6v6.89h-17.6V29h26.52Z"/><path class="cls-1" d="M116.7,68.68h-4.79V52.05h-.07l-9.38,13.43L93.07,52.05H93V68.68H88.22V47.06a1.25,1.25,0,0,0-.23-.8,1.76,1.76,0,0,0-.87-.45v-.56h6.67l8.67,12.4,8.64-12.4h5.6Z"/><path class="cls-1" d="M160.22,60.79a7.36,7.36,0,0,1-3.17,6.14,16.91,16.91,0,0,1-17.47,0,7.33,7.33,0,0,1-3.17-6.14V47a1.21,1.21,0,0,0-.27-.82,1.45,1.45,0,0,0-.83-.41v-.56h5.88V60a4.06,4.06,0,0,0,1.88,3.5,9.12,9.12,0,0,0,5.24,1.32,9,9,0,0,0,5.28-1.36A4.06,4.06,0,0,0,155.43,60V45.25h4.79Z"/><path class="cls-1" d="M200.93,49.75h-9.35V68.68h-4.79V49.75h-7.7a1.36,1.36,0,0,0-.68.23,1.76,1.76,0,0,0-.45.87h-.56v-5.6h23.53Z"/><path class="cls-1" d="M241.51,60.79a7.36,7.36,0,0,1-3.17,6.14,16.93,16.93,0,0,1-17.48,0,7.36,7.36,0,0,1-3.17-6.14V47a1.2,1.2,0,0,0-.26-.82,1.48,1.48,0,0,0-.84-.41v-.56h5.89V60a4.06,4.06,0,0,0,1.88,3.5,11,11,0,0,0,10.52,0A4.06,4.06,0,0,0,236.72,60V45.25h4.79Z"/><path class="cls-1" d="M270.73,49.49l-4.3,9.65H275Zm8.58,19.19-2.24-5.05H264.45l-2.26,5.05h-4.82l9.12-20.48a2.91,2.91,0,0,0,.39-1.26c0-.55-.36-.91-1-1.13v-.56h7.83l10.42,23.43Z"/></g></g></svg>